<?xml version="1.0" encoding="utf-8"?>
<!-- Generator: Adobe Illustrator 19.0.0, SVG Export Plug-In . SVG Version: 6.00 Build 0)  -->
<svg version="1.1" id="Camada_1" xmlns="http://www.w3.org/2000/svg" xmlns:xlink="http://www.w3.org/1999/xlink" x="0px" y="0px"
	 viewBox="-118 36 405 722" style="enable-background:new -118 36 405 722;" xml:space="preserve">
<style type="text/css">
	.st0{clip-path:url(#SVGID_2_);}
	.st1{fill:#FFFFFF;}
	.st2{fill:#959BEF;}
	.st3{opacity:0.362;fill:#5261CC;enable-background:new    ;}
	.st4{opacity:0.362;fill:#7A59C1;enable-background:new    ;}
</style>
<g>
	<defs>
		<rect id="SVGID_1_" x="-118" y="36" width="405" height="722"/>
	</defs>
	<clipPath id="SVGID_2_">
		<use xlink:href="#SVGID_1_"  style="overflow:visible;"/>
	</clipPath>
	<g id="Grupo_de_máscara_4" class="st0">
		<rect x="-131" y="31" class="st1" width="430" height="357"/>
		<path id="Caminho_2304_1_" class="st2" d="M-63.6,564l271.8-220c32.1-26,83.5-15.7,114.7,22.9l208.3,257.4
			c31.3,38.6,30.6,91-1.5,117l-271.8,220c-32.1,26-83.5,15.7-114.7-22.9L-65,681.1C-96.3,642.4-95.7,590-63.6,564z"/>
		<path id="Caminho_2306" class="st2" d="M-325,506.4l274.6-274.6c32.4-32.4,83.9-33.6,114.9-2.5l206.6,206.6
			c31,31,29.9,82.5-2.5,114.9L-6,825.4c-32.4,32.4-83.9,33.6-114.9,2.5l-206.6-206.6C-358.6,590.2-357.4,538.8-325,506.4z"/>
		<path id="Caminho_2304" class="st2" d="M-165.6,446l271.8-220c32.1-26,83.5-15.7,114.7,22.9l208.3,257.4
			c31.3,38.6,30.6,91-1.5,117l-271.8,220c-32.1,26-83.5,15.7-114.7-22.9L-167,563.1C-198.3,524.4-197.7,472-165.6,446z"/>
		<path id="Caminho_2308" class="st3" d="M-114.5,395.9c77.1,0,139.5,62.5,139.5,139.5S-37.4,675-114.5,675S-254,612.5-254,535.5
			c0,0,0,0,0,0C-254,458.4-191.5,395.9-114.5,395.9z"/>
		<path id="Caminho_2305" class="st1" d="M-210.8,122.5L-31.4-22.7c21.2-17.1,52.2-13.9,69.4,7.3l114.2,141
			c17.1,21.2,13.9,52.2-7.3,69.4L-34.6,340.2c-21.2,17.1-52.2,13.9-69.4-7.3c0,0,0,0,0,0l-114.2-141
			C-235.2,170.7-232,139.6-210.8,122.5z"/>
		<path id="Caminho_2307" class="st4" d="M248.1,527.2c56.8,0,102.9,46.1,102.9,102.9S304.9,733,248.1,733s-102.9-46.1-102.9-102.9
			c0,0,0,0,0,0C145.2,573.3,191.3,527.2,248.1,527.2z"/>
	</g>
</g>
</svg>
